<!-- Generated by IcoMoon.io -->
<svg version="1.1" xmlns="http://www.w3.org/2000/svg" width="36" height="32" viewBox="0 0 36 32">
<title>fa-solid_book-open</title>
<path fill="#28a745" d="M32.891 2.392c-3.324 0.189-9.931 0.877-14.010 3.378-0.282 0.173-0.441 0.479-0.441 0.8v22.11c0 0.702 0.766 1.145 1.412 0.82 4.196-2.116 10.265-2.693 13.266-2.851 1.025-0.054 1.821-0.877 1.821-1.863v-20.529c0.001-1.076-0.931-1.929-2.048-1.865zM16.058 5.77c-4.078-2.501-10.685-3.188-14.009-3.378-1.117-0.063-2.049 0.789-2.049 1.865v20.529c0 0.987 0.796 1.809 1.821 1.863 3.002 0.158 9.074 0.736 13.271 2.853 0.644 0.325 1.408-0.118 1.408-0.818v-22.125c0-0.321-0.159-0.616-0.441-0.789z"></path>
</svg>
