<!-- Generated by IcoMoon.io -->
<svg version="1.1" xmlns="http://www.w3.org/2000/svg" width="37" height="32" viewBox="0 0 37 32">
<title>2</title>
<path fill="#fff" d="M33.469 8.283c1.458-1.094 2.771-2.406 3.792-3.938-1.312 0.583-2.844 1.021-4.375 1.167 1.604-0.948 2.771-2.406 3.354-4.229-1.458 0.875-3.135 1.531-4.812 1.896-1.458-1.531-3.427-2.406-5.615-2.406-4.229 0-7.656 3.427-7.656 7.656 0 0.583 0.073 1.167 0.219 1.75-6.344-0.365-12.031-3.427-15.823-8.021-0.656 1.094-1.021 2.406-1.021 3.865 0 2.625 1.313 4.958 3.427 6.344-1.24-0.073-2.479-0.365-3.5-0.948v0.073c0 3.719 2.625 6.781 6.125 7.511-0.583 0.146-1.313 0.292-1.969 0.292-0.51 0-0.948-0.073-1.458-0.146 0.948 3.063 3.792 5.25 7.146 5.323-2.625 2.042-5.906 3.281-9.479 3.281-0.656 0-1.24-0.073-1.823-0.146 3.354 2.187 7.365 3.427 11.74 3.427 14.073 0 21.729-11.594 21.729-21.729 0-0.365 0-0.656 0-1.021z"></path>
</svg>
